<svg id="Group_113322" data-name="Group 113322" xmlns="http://www.w3.org/2000/svg" width="20.096" height="20.097" viewBox="0 0 20.096 20.097">
  <path id="Path_18836" data-name="Path 18836" d="M10395.638,1347.506a8.875,8.875,0,1,1,6.29-2.6A8.833,8.833,0,0,1,10395.638,1347.506Zm0-16.417a7.529,7.529,0,1,0,5.343,2.207A7.5,7.5,0,0,0,10395.638,1331.09Z" transform="translate(-10386.75 -1329.75)" fill="#615375"/>
  <path id="Path_18837" data-name="Path 18837" d="M10407.854,1351.521a.668.668,0,0,1-.475-.2l-4.733-4.752a.67.67,0,0,1,.949-.946l4.733,4.752a.67.67,0,0,1-.475,1.143Z" transform="translate(-10388.428 -1331.425)" fill="#615375"/>
</svg>
