<svg xmlns="http://www.w3.org/2000/svg" width="32.188" height="32.188" viewBox="0 0 32.188 32.188">
  <g id="Group_465604" data-name="Group 465604" transform="translate(-310 -116)">
    <g id="Path_759343" data-name="Path 759343" transform="translate(310 116)" fill="#8361cd">
      <path d="M 16.093994140625 31.68798446655273 C 11.92868423461914 31.68798446655273 8.012694358825684 30.0659236907959 5.067374229431152 27.12061500549316 C 2.122064113616943 24.17529487609863 0.5000041127204895 20.25930404663086 0.5000041127204895 16.093994140625 C 0.5000041127204895 11.92868423461914 2.122064113616943 8.012694358825684 5.067374229431152 5.067374229431152 C 8.012694358825684 2.122064113616943 11.92868423461914 0.5000041127204895 16.093994140625 0.5000041127204895 C 20.25930404663086 0.5000041127204895 24.17529487609863 2.122064113616943 27.12061500549316 5.067374229431152 C 30.0659236907959 8.012694358825684 31.68798446655273 11.92868423461914 31.68798446655273 16.093994140625 C 31.68798446655273 20.25930404663086 30.0659236907959 24.17529487609863 27.12061500549316 27.12061500549316 C 24.17529487609863 30.0659236907959 20.25930404663086 31.68798446655273 16.093994140625 31.68798446655273 Z" stroke="none"/>
      <path d="M 16.093994140625 1.000003814697266 C 12.0622444152832 1.000003814697266 8.271804809570312 2.57005500793457 5.420934677124023 5.420934677124023 C 2.57005500793457 8.271804809570312 1.000003814697266 12.0622444152832 1.000003814697266 16.093994140625 C 1.000003814697266 20.1257438659668 2.57005500793457 23.91618347167969 5.420934677124023 26.76705360412598 C 8.271804809570312 29.61793518066406 12.0622444152832 31.18798446655273 16.093994140625 31.18798446655273 C 20.1257438659668 31.18798446655273 23.91618347167969 29.61793518066406 26.76705360412598 26.76705360412598 C 29.61793518066406 23.91618347167969 31.18798446655273 20.1257438659668 31.18798446655273 16.093994140625 C 31.18798446655273 12.0622444152832 29.61793518066406 8.271804809570312 26.76705360412598 5.420934677124023 C 23.91618347167969 2.57005500793457 20.1257438659668 1.000003814697266 16.093994140625 1.000003814697266 M 16.093994140625 3.814697265625e-06 C 24.98246383666992 3.814697265625e-06 32.18798446655273 7.205524444580078 32.18798446655273 16.093994140625 C 32.18798446655273 24.98246383666992 24.98246383666992 32.18798446655273 16.093994140625 32.18798446655273 C 7.205524444580078 32.18798446655273 3.814697265625e-06 24.98246383666992 3.814697265625e-06 16.093994140625 C 3.814697265625e-06 7.205524444580078 7.205524444580078 3.814697265625e-06 16.093994140625 3.814697265625e-06 Z" stroke="none" fill="#6239be"/>
    </g>
    <g id="Group_465603" data-name="Group 465603" transform="translate(318.758 127.838)">
      <g id="Group_213911" data-name="Group 213911" transform="translate(0 0)">
        <path id="Path_20198" data-name="Path 20198" d="M10265.4,959.912a.662.662,0,0,1-.468-.192l-4.279-4.227a.666.666,0,0,1,.937-.948l3.806,3.761,7.953-7.984a.666.666,0,1,1,.942.94l-8.418,8.454A.665.665,0,0,1,10265.4,959.912Z" transform="translate(-10260.451 -950.125)" fill="#fff" stroke="#fff" stroke-linecap="round" stroke-width="1"/>
      </g>
    </g>
  </g>
</svg>
